<svg xmlns="http://www.w3.org/2000/svg" viewBox="-8 -6.928203 14 12.124356">
  <g transform="rotate(210)">
    <!-- Color 1 -->
    <polygon fill="#cf6a17"
      points="
      -6.928203,0
      -5.196152,-1
      -3.464102,0
      1.732051,-3
      1.732051,-1
      -1.732051,1
      3.464102,4
      5.196152,5
      3.464102,6
      -6.928203,0
    "/>
    <!-- Color 2 -->
    <polygon fill="#6a360c"
      points="
      -6.928203,0
      -6.928203,-2
      -5.196152,-3
      -5.196152,-1
      -6.928203,0
    "/>
    <polygon fill="#6a360c"
      points="
      -3.464102,0
      -3.464102,-2
      1.732051,-5
      1.732051,-7
      3.464102,-8
      3.464102,2
      1.732051,1
      1.732051,-3
      -3.464102,0
    "/>
    <!-- Color 3 -->
    <polygon fill="#fcb20e"
      points="
      -5.196152,-1
      -5.196152,-3
      -3.464102,-2
      -3.464102,0
      -5.196152,-1
    "/>
    <polygon fill="#fcb20e"
      points="
      -1.732051,1
      0,0
      3.464102,2
      3.464102,-8
      5.196152,-7
      5.196152,5
      -1.732051,1
    "/>
  </g>
</svg>
